<?xml version="1.0" standalone="no"?><!-- Generator: Gravit.io --><svg xmlns="http://www.w3.org/2000/svg" xmlns:xlink="http://www.w3.org/1999/xlink" style="isolation:isolate" viewBox="0 0 110.031 107.5" width="110.031" height="107.5"><defs><clipPath id="_clipPath_wODdCCBlY0T3zZpcR8AAbZbfo3FJ7WVc"><rect width="110.031" height="107.5"/></clipPath></defs><g clip-path="url(#_clipPath_wODdCCBlY0T3zZpcR8AAbZbfo3FJ7WVc)"><path d=" M 57.506 0 L 64.981 0 C 64.981 3.338 64.981 6.663 64.981 10 C 78.356 10.075 91.718 9.862 105.081 10.075 C 107.931 9.788 110.168 12 109.906 14.85 C 110.118 39.475 109.856 64.113 110.031 88.738 C 109.906 91.262 110.281 94.063 108.818 96.3 C 106.993 97.6 104.631 97.437 102.506 97.537 C 89.993 97.475 77.493 97.5 64.981 97.5 C 64.981 100.838 64.981 104.163 64.981 107.5 L 57.168 107.5 C 38.143 104.025 19.068 100.838 0.006 97.5 C -0.007 68.338 0.006 39.175 0.006 10.025 C 19.168 6.675 38.343 3.413 57.506 0 Z " fill="rgb(255,183,0)"/><path d=" M 64.981 13.75 C 78.731 13.75 92.481 13.75 106.231 13.75 C 106.231 40.412 106.231 67.088 106.231 93.75 C 92.481 93.75 78.731 93.75 64.981 93.75 C 64.981 90.413 64.981 87.088 64.981 83.75 C 75.818 83.75 86.643 83.75 97.481 83.75 C 97.481 82.088 97.481 80.413 97.481 78.75 C 86.643 78.75 75.818 78.75 64.981 78.75 C 64.981 76.663 64.981 74.588 64.981 72.5 C 75.818 72.5 86.643 72.5 97.481 72.5 C 97.481 70.838 97.481 69.163 97.481 67.5 C 86.643 67.5 75.818 67.5 64.981 67.5 C 64.981 65.412 64.981 63.338 64.981 61.25 C 75.818 61.25 86.643 61.25 97.481 61.25 C 97.481 59.588 97.481 57.912 97.481 56.25 C 86.643 56.25 75.818 56.25 64.981 56.25 C 64.981 54.162 64.981 52.088 64.981 50 C 75.818 50 86.643 50 97.481 50 C 97.481 48.338 97.481 46.662 97.481 45 C 86.643 45 75.818 45 64.981 45 C 64.981 42.912 64.981 40.838 64.981 38.75 C 75.818 38.75 86.643 38.75 97.481 38.75 C 97.481 37.088 97.481 35.412 97.481 33.75 C 86.643 33.75 75.818 33.75 64.981 33.75 C 64.981 31.662 64.981 29.588 64.981 27.5 C 75.818 27.5 86.643 27.5 97.481 27.5 C 97.481 25.838 97.481 24.162 97.481 22.5 C 86.643 22.5 75.818 22.5 64.981 22.5 C 64.981 19.588 64.981 16.663 64.981 13.75 Z " fill="rgb(255,255,255)"/><path d=" M 12.019 74.759 L 12.019 74.759 L 12.019 74.759 Q 9.713 74.759 8 74.275 L 8 74.275 L 8 68.609 L 8 68.609 Q 9.757 69.048 11.207 69.048 L 11.207 69.048 L 11.207 69.048 Q 13.447 69.048 14.414 67.653 L 14.414 67.653 L 14.414 67.653 Q 15.38 66.259 15.38 63.293 L 15.38 63.293 L 15.38 33.203 L 22.189 33.203 L 22.189 63.249 L 22.189 63.249 Q 22.189 68.872 19.619 71.815 L 19.619 71.815 L 19.619 71.815 Q 17.049 74.759 12.019 74.759 Z  M 49.227 56.397 L 49.227 56.397 L 49.227 56.397 Q 49.227 60.746 46.097 63.249 L 46.097 63.249 L 46.097 63.249 Q 42.967 65.753 37.388 65.753 L 37.388 65.753 L 37.388 65.753 Q 32.248 65.753 28.295 63.821 L 28.295 63.821 L 28.295 57.495 L 28.295 57.495 Q 31.545 58.945 33.797 59.538 L 33.797 59.538 L 33.797 59.538 Q 36.048 60.131 37.915 60.131 L 37.915 60.131 L 37.915 60.131 Q 40.155 60.131 41.352 59.274 L 41.352 59.274 L 41.352 59.274 Q 42.549 58.417 42.549 56.726 L 42.549 56.726 L 42.549 56.726 Q 42.549 55.782 42.022 55.046 L 42.022 55.046 L 42.022 55.046 Q 41.495 54.31 40.474 53.629 L 40.474 53.629 L 40.474 53.629 Q 39.453 52.948 36.312 51.455 L 36.312 51.455 L 36.312 51.455 Q 33.369 50.071 31.897 48.797 L 31.897 48.797 L 31.897 48.797 Q 30.425 47.523 29.547 45.832 L 29.547 45.832 L 29.547 45.832 Q 28.668 44.141 28.668 41.878 L 28.668 41.878 L 28.668 41.878 Q 28.668 37.617 31.556 35.179 L 31.556 35.179 L 31.556 35.179 Q 34.445 32.741 39.54 32.741 L 39.54 32.741 L 39.54 32.741 Q 42.044 32.741 44.318 33.334 L 44.318 33.334 L 44.318 33.334 Q 46.591 33.927 49.073 35.004 L 49.073 35.004 L 46.876 40.297 L 46.876 40.297 Q 44.307 39.243 42.626 38.825 L 42.626 38.825 L 42.626 38.825 Q 40.946 38.408 39.321 38.408 L 39.321 38.408 L 39.321 38.408 Q 37.388 38.408 36.356 39.309 L 36.356 39.309 L 36.356 39.309 Q 35.323 40.209 35.323 41.659 L 35.323 41.659 L 35.323 41.659 Q 35.323 42.559 35.741 43.229 L 35.741 43.229 L 35.741 43.229 Q 36.158 43.899 37.069 44.525 L 37.069 44.525 L 37.069 44.525 Q 37.981 45.151 41.385 46.776 L 41.385 46.776 L 41.385 46.776 Q 45.888 48.929 47.557 51.092 L 47.557 51.092 L 47.557 51.092 Q 49.227 53.256 49.227 56.397 Z " fill-rule="evenodd" fill="rgb(0,0,0)"/></g></svg>